<svg display="none" xmlns="http://www.w3.org/2000/svg">

    <symbol viewBox="0 0 24 24" id="loading">
        <path d="M12,4V2A10,10 0 0,0 2,12H4A8,8 0 0,1 12,4Z" />
    </symbol>

    <symbol viewBox="0 0 14 14" id="phone">
        <path d="M13.1833 14C11.563 14 9.96204 13.6468 8.38056 12.9403C6.79907 12.2338 5.36019 11.2324 4.06389 9.93611C2.76759 8.63982 1.7662 7.20093 1.05972 5.61944C0.353241 4.03796 0 2.43704 0 0.816667C0 0.583333 0.0777778 0.388889 0.233333 0.233333C0.388889 0.0777778 0.583333 0 0.816667 0H3.96667C4.14815 0 4.31018 0.0615741 4.45278 0.184722C4.59537 0.30787 4.67963 0.453704 4.70556 0.622222L5.21111 3.34444C5.23704 3.55185 5.23056 3.72685 5.19167 3.86944C5.15278 4.01204 5.08148 4.13519 4.97778 4.23889L3.09167 6.14444C3.35093 6.62407 3.6588 7.0875 4.01528 7.53472C4.37176 7.98194 4.76389 8.41296 5.19167 8.82778C5.59352 9.22963 6.01481 9.60231 6.45556 9.94583C6.8963 10.2894 7.36296 10.6037 7.85556 10.8889L9.68333 9.06111C9.8 8.94444 9.95232 8.85695 10.1403 8.79861C10.3282 8.74028 10.513 8.72407 10.6944 8.75L13.3778 9.29444C13.5593 9.3463 13.7083 9.44028 13.825 9.57639C13.9417 9.7125 14 9.86482 14 10.0333V13.1833C14 13.4167 13.9222 13.6111 13.7667 13.7667C13.6111 13.9222 13.4167 14 13.1833 14ZM2.35278 4.66667L3.63611 3.38333L3.30556 1.55556H1.575C1.63981 2.08704 1.73056 2.61204 1.84722 3.13056C1.96389 3.64907 2.13241 4.16111 2.35278 4.66667ZM9.31389 11.6278C9.81944 11.8481 10.3347 12.0231 10.8597 12.1528C11.3847 12.2824 11.913 12.3667 12.4444 12.4056V10.6944L10.6167 10.325L9.31389 11.6278Z"/>
    </symbol>

    <symbol viewBox="0 0 14 14" id="clock">
        <path d="M7 14C6.03167 14 5.12167 13.8162 4.27 13.4487C3.41833 13.0812 2.6775 12.5825 2.0475 11.9525C1.4175 11.3225 0.91875 10.5817 0.55125 9.73C0.18375 8.87833 0 7.96833 0 7C0 6.03167 0.18375 5.12167 0.55125 4.27C0.91875 3.41833 1.4175 2.6775 2.0475 2.0475C2.6775 1.4175 3.41833 0.91875 4.27 0.55125C5.12167 0.18375 6.03167 0 7 0C7.96833 0 8.87833 0.18375 9.73 0.55125C10.5817 0.91875 11.3225 1.4175 11.9525 2.0475C12.5825 2.6775 13.0812 3.41833 13.4487 4.27C13.8162 5.12167 14 6.03167 14 7C14 7.315 13.9825 7.62417 13.9475 7.9275C13.9125 8.23083 13.8542 8.52833 13.7725 8.82C13.6092 8.63333 13.4196 8.47583 13.2038 8.3475C12.9879 8.21917 12.7517 8.13167 12.495 8.085C12.53 7.91 12.5562 7.73208 12.5737 7.55125C12.5912 7.37042 12.6 7.18667 12.6 7C12.6 5.43667 12.0575 4.1125 10.9725 3.0275C9.8875 1.9425 8.56333 1.4 7 1.4C5.43667 1.4 4.1125 1.9425 3.0275 3.0275C1.9425 4.1125 1.4 5.43667 1.4 7C1.4 8.56333 1.9425 9.8875 3.0275 10.9725C4.1125 12.0575 5.43667 12.6 7 12.6C7.595 12.6 8.16375 12.5125 8.70625 12.3375C9.24875 12.1625 9.7475 11.9175 10.2025 11.6025C10.3425 11.8008 10.5146 11.9758 10.7188 12.1275C10.9229 12.2792 11.1417 12.3958 11.375 12.4775C10.78 12.9558 10.1121 13.3292 9.37125 13.5975C8.63042 13.8658 7.84 14 7 14ZM12.075 11.2C11.83 11.2 11.6229 11.1154 11.4538 10.9462C11.2846 10.7771 11.2 10.57 11.2 10.325C11.2 10.08 11.2846 9.87292 11.4538 9.70375C11.6229 9.53458 11.83 9.45 12.075 9.45C12.32 9.45 12.5271 9.53458 12.6962 9.70375C12.8654 9.87292 12.95 10.08 12.95 10.325C12.95 10.57 12.8654 10.7771 12.6962 10.9462C12.5271 11.1154 12.32 11.2 12.075 11.2ZM9.31 10.29L6.3 7.28V3.5H7.7V6.72L10.29 9.31L9.31 10.29Z" fill="white"/>
    </symbol>

    <symbol viewBox="0 0 1300 141" id="upper">
        <path fill-rule="evenodd" clip-rule="evenodd" d="M38.7082 140.222H0L0.000436783 37.4549L38.7082 0.000106812H114.957L153.275 37.1109L1147.18 37.4549L1185.5 8.39233e-05L1261.68 0L1300 37.4548V140.222H1260.42H1185.15H1147.18H153.275H114.957H38.7082Z" fill="#3FAC4F"/>
    <symbol>

    <symbol viewBox="0 0 1301 141" id="lower">
        <path fill-rule="evenodd" clip-rule="evenodd" d="M39.3953 103.824L0.6875 66.7131L0.6875 0.713226H39.3953H115.644L153.962 0.71312H1147.87L1186.19 0.708984L1262.37 0.71312L1300.69 0.713226V66.713L1262.37 103.824L1186.19 103.824L1147.87 140.935H153.962L115.644 103.824L39.3953 103.824Z" fill="#3FAC4F"/>
    </symbol>

</svg>
